<svg width="64" height="64" viewBox="0 0 64 64" fill="none" xmlns="http://www.w3.org/2000/svg">
<rect width="64" height="64" rx="32" fill="black"/>
<g clip-path="url(#clip0_148_11)">
<path fill-rule="evenodd" clip-rule="evenodd" d="M48.4079 27.2006C48.3504 29.4012 47.8613 31.5687 46.9681 33.5796C45.0903 37.8081 40.1486 39.7097 35.9306 37.8271C31.7127 35.9445 29.8158 30.9904 31.6937 26.7619C32.1402 25.7565 32.3848 24.6726 32.4136 23.5724C32.4423 22.4722 32.2546 21.3771 31.8612 20.3496C31.4677 19.3221 30.8763 18.3823 30.1206 17.584C29.3649 16.7857 28.4597 16.1443 27.4568 15.6967C26.4538 15.249 25.3728 15.0038 24.2753 14.975C23.1778 14.9462 22.0854 15.1344 21.0605 15.5288C20.0356 15.9232 19.0982 16.5161 18.3018 17.2737C17.5055 18.0313 16.8657 18.9388 16.4192 19.9442C17.3123 17.9333 18.5917 16.1185 20.1844 14.6032C21.7771 13.088 23.6519 11.9022 25.7017 11.1133C27.7516 10.3245 29.9364 9.94812 32.1313 10.0057C34.3263 10.0634 36.4884 10.5538 38.4943 11.4491C40.5002 12.3445 42.3106 13.6271 43.8219 15.2238C45.3333 16.8205 46.5163 18.7 47.3031 20.755C48.09 22.81 48.4654 25.0002 48.4079 27.2006ZM15 28.5498C15 28.2557 15.0151 27.9652 15.0446 27.679C15.164 29.3139 15.5223 30.9255 16.1105 32.4615C16.8973 34.5165 18.0802 36.396 19.5917 37.9927C21.1031 39.5895 22.9134 40.8721 24.9193 41.7674C26.9251 42.6627 29.0873 43.1532 31.2822 43.2108C31.4282 43.2146 31.5741 43.2165 31.72 43.2165V45.3117C31.72 49.9404 27.9771 53.6926 23.36 53.6926C18.7429 53.6926 15 49.9404 15 45.3117L15 28.5498Z" fill="white"/>
</g>
<defs>
<clipPath id="clip0_148_11">
<rect width="33.44" height="44" fill="white" transform="translate(15 10)"/>
</clipPath>
</defs>
</svg>
